<?xml version="1.0" encoding="UTF-8" standalone="no"?>
<!DOCTYPE svg PUBLIC "-//W3C//DTD SVG 1.1//EN" "http://www.w3.org/Graphics/SVG/1.1/DTD/svg11.dtd">
<svg width="100%" height="100%" viewBox="0 0 256 256" version="1.1" xmlns="http://www.w3.org/2000/svg" xmlns:xlink="http://www.w3.org/1999/xlink" xml:space="preserve" style="fill-rule:evenodd;clip-rule:evenodd;stroke-linecap:round;stroke-linejoin:round;stroke-miterlimit:10;">
    <rect id="_256px-x-256px" x="0" y="0" width="256" height="256" style="fill:none;"/>
    <clipPath id="_clip1">
        <rect id="_256px-x-256px1" x="0" y="0" width="256" height="256"/>
    </clipPath>
    <g clip-path="url(#_clip1)">
        <g id="Layer1">
            <rect x="0" y="0" width="256" height="256" style="fill:url(#_Linear2);"/>
            <g>
                <g>
                    <ellipse cx="72.474" cy="142.97" rx="40.096" ry="16.038" style="fill:none;stroke:#b2f7fc;stroke-width:8.02px;"/>
                    <path d="M112.57,167.027C112.57,175.848 94.928,183.066 72.474,183.066C50.02,183.066 32.378,175.848 32.378,167.027" style="fill:none;stroke:#b2f7fc;stroke-width:8.02px;"/>
                    <path d="M112.57,191.085C112.57,199.906 94.928,207.123 72.474,207.123C50.02,207.123 32.378,199.906 32.378,191.085" style="fill:none;stroke:#b2f7fc;stroke-width:8.02px;"/>
                    <path d="M128.609,160.612C146.251,160.612 160.685,146.177 160.685,128.535C160.685,110.893 146.251,96.458 128.609,96.458C115.778,96.458 105.353,103.675 99.74,114.1" style="fill:none;stroke:#b2f7fc;stroke-width:8.02px;"/>
                    <path d="M128.609,192.689C131.014,192.689 132.618,192.689 135.024,192.689C140.637,191.887 146.251,195.896 147.053,201.51C147.855,208.727 155.874,212.737 162.289,209.529C169.507,206.321 175.12,203.114 181.535,198.302C187.149,194.292 187.951,185.471 182.337,180.66C177.526,176.65 177.526,170.235 180.733,165.423C183.139,162.216 185.545,158.206 187.149,154.196C189.555,148.583 195.97,146.177 201.583,147.781C207.999,150.187 215.216,146.177 216.82,138.96C217.622,134.95 217.622,131.743 217.622,127.733C217.622,123.723 217.622,120.516 216.82,116.506C216.018,109.289 208.801,104.477 201.583,107.685C195.97,110.091 189.555,106.883 187.149,101.27C185.545,97.26 183.139,93.25 180.733,90.043C177.526,85.231 177.526,78.816 182.337,74.806C187.951,69.995 187.951,61.976 181.535,57.164C175.922,53.154 169.507,49.145 162.289,45.937C155.874,43.531 147.855,46.739 147.053,53.956C146.251,59.57 140.637,63.579 135.024,62.777L122.193,62.777C116.58,63.579 110.966,59.57 110.164,53.956C109.363,46.739 101.343,42.729 94.928,45.937C87.711,50.749 81.295,53.956 75.682,58.768C69.267,62.777 69.267,71.599 74.88,76.41C79.691,79.618 79.691,86.835 76.484,91.647C74.078,94.854 71.672,98.864 70.068,102.873C67.663,108.487 61.247,110.893 55.634,109.289C50.02,106.081 43.605,110.091 42.001,115.704" style="fill:none;stroke:#b2f7fc;stroke-width:8.02px;"/>
                    <path d="M112.57,142.97L112.57,215.142C112.57,223.963 94.928,231.181 72.474,231.181C50.02,231.181 32.378,223.963 32.378,215.142L32.378,142.97" style="fill:none;stroke:#b2f7fc;stroke-width:8.02px;"/>
                </g>
            </g>
        </g>
    </g>
    <defs>
        <linearGradient id="_Linear2" x1="0" y1="0" x2="1" y2="0" gradientUnits="userSpaceOnUse" gradientTransform="matrix(255.004,256,-255.004,256,0.996109,0)"><stop offset="0" style="stop-color:#072460;stop-opacity:1"/><stop offset="0.44" style="stop-color:#285a7d;stop-opacity:1"/><stop offset="1" style="stop-color:#74d7bf;stop-opacity:1"/></linearGradient>
    </defs>
</svg>
